<?xml version="1.0" encoding="UTF-8" standalone="yes"?>
<svg version="1.2" width="512" height="512" baseProfile="tiny-ps" xmlns="http://www.w3.org/2000/svg">
  <title>bimi-svg-tiny-12-ps</title>
  <path d="M0 0 C4.11053564 0.01709078 8.22048831 0.00690831 12.33100414 -0.0103159 C37.65977005 -0.10035028 62.7177343 1.01992003 87.62207031 6.07861328 C88.89695312 6.33352539 90.17183594 6.5884375 91.48535156 6.85107422 C132.13813951 15.19723627 168.96555672 32.52390166 198.93457031 61.39111328 C199.68738281 62.08076172 200.44019531 62.77041016 201.21582031 63.48095703 C242.87514553 102.80071869 259.2044749 167.66527097 261.10961914 222.82113647 C261.37224809 232.36442501 261.36571062 241.91047892 261.32568359 251.45654297 C261.30859282 255.56707861 261.31877528 259.67703127 261.33599949 263.78754711 C261.42603388 289.11631301 260.30576357 314.17427727 255.24707031 339.07861328 C254.9921582 340.35349609 254.73724609 341.62837891 254.47460938 342.94189453 C246.12844733 383.59468248 228.80178194 420.42209969 199.93457031 450.39111328 C198.90009766 451.52033203 198.90009766 451.52033203 197.84472656 452.67236328 C158.5249649 494.33168849 93.66041262 510.66101787 38.50454712 512.56616211 C28.96125859 512.82879105 19.41520467 512.82225359 9.86914062 512.78222656 C5.75860498 512.76513578 1.64865232 512.77531825 -2.46186352 512.79254246 C-27.79062942 512.88257685 -52.84859367 511.76230653 -77.75292969 506.70361328 C-79.0278125 506.44870117 -80.30269531 506.19378906 -81.61621094 505.93115234 C-122.26899889 497.5849903 -159.09641609 480.25832491 -189.06542969 451.39111328 C-189.81824219 450.70146484 -190.57105469 450.01181641 -191.34667969 449.30126953 C-233.0060049 409.98150787 -249.33533428 345.11695559 -251.24047852 289.96109009 C-251.50310746 280.41780155 -251.49656999 270.87174764 -251.45654297 261.32568359 C-251.43945219 257.21514795 -251.44963466 253.10519529 -251.46685886 248.99467945 C-251.55689325 223.66591355 -250.43662294 198.6079493 -245.37792969 173.70361328 C-245.12301758 172.42873047 -244.86810547 171.15384766 -244.60546875 169.84033203 C-236.2593067 129.18754408 -218.93264131 92.36012688 -190.06542969 62.39111328 C-189.37578125 61.63830078 -188.68613281 60.88548828 -187.97558594 60.10986328 C-140.91632442 10.25053055 -64.85599134 -0.27194373 0 0 Z " fill="#0A0A0A" transform="translate(251.0654296875,-0.39111328125)"/>
  <path d="M0 0 C1.57380052 -0.00186961 3.14759969 -0.00591816 4.72138977 -0.01194763 C8.94643865 -0.02181983 13.17080341 -0.0009264 17.39575338 0.02653241 C21.83975858 0.05057368 26.28375509 0.04741905 30.72781372 0.0478363 C38.1801494 0.05244536 45.63222738 0.07596464 53.08447266 0.11230469 C61.68189517 0.15411923 70.27908655 0.17162598 78.87660491 0.17492443 C88.0669411 0.17853117 97.25719515 0.19740362 106.44749689 0.22204471 C109.08200139 0.22825186 111.71649964 0.23190145 114.35100937 0.23507881 C118.49623111 0.24100596 122.6412902 0.25739226 126.78644371 0.28168297 C128.30169224 0.28908201 129.81696119 0.29319224 131.33222771 0.29366302 C152.19607635 0.30642391 169.85527653 6.59444859 185.24658203 21.03295898 C200.65091331 37.40940826 204.99906649 56.08624903 204.92626953 78.04077148 C204.92762142 79.49942591 204.92956628 80.95807988 204.93206787 82.41673279 C204.9349936 85.45315907 204.93080405 88.48946658 204.92138672 91.52587891 C204.90998343 95.38752205 204.91657346 99.24888732 204.92853165 103.11052036 C204.93581106 106.11596208 204.93343482 109.12133956 204.92827606 112.12678337 C204.92695685 113.54951957 204.92852548 114.97226191 204.93323517 116.39499092 C204.98929445 138.07579785 199.28225584 156.11210969 184.23486328 172.18139648 C176.28432301 179.64935465 167.06938101 185.26369998 156.66064453 188.59936523 C155.90592361 188.84702133 155.1512027 189.09467743 154.37361145 189.34983826 C144.82790354 192.12926706 135.61228018 191.98328935 125.77001953 191.89233398 C123.971134 191.88672675 122.17224383 191.88246199 120.37335205 191.87947083 C115.67815111 191.86811067 110.98323623 191.83872134 106.28814697 191.80535889 C100.63368133 191.76901775 94.97911912 191.75545473 89.3245697 191.73799896 C80.76973008 191.70907726 72.21551598 191.65152908 63.66064453 191.59936523 C63.66064453 204.46936523 63.66064453 217.33936523 63.66064453 230.59936523 C58.57916016 230.62514648 53.49767578 230.65092773 48.26220703 230.67749023 C45.02648081 230.70268227 41.79084588 230.72903315 38.55517578 230.75952148 C33.42903399 230.80771372 28.30310377 230.85181165 23.17675781 230.87036133 C19.03974374 230.88560115 14.90328641 230.92017461 10.76652145 230.96767426 C9.19508095 230.98241305 7.62356093 230.99040191 6.05205154 230.99124908 C-5.81745654 231.00407294 -15.57538207 232.12581234 -24.58154297 240.60327148 C-30.26664436 247.05901995 -32.43956247 253.64029459 -32.50048828 262.14892578 C-32.51009583 263.23743332 -32.51970337 264.32594086 -32.52960205 265.44743347 C-32.53385193 266.61518814 -32.53810181 267.78294281 -32.54248047 268.98608398 C-32.55103058 270.80436455 -32.55103058 270.80436455 -32.55975342 272.65937805 C-32.56919267 275.22391897 -32.57573313 277.78847196 -32.57958984 280.35302734 C-32.58927641 284.25501979 -32.62030331 288.15648112 -32.65185547 292.05834961 C-32.65838795 294.55509129 -32.66363746 297.05183672 -32.66748047 299.54858398 C-32.67982727 300.7062175 -32.69217407 301.86385101 -32.70489502 303.05656433 C-32.67619575 313.61659448 -31.00175502 322.86809018 -23.33935547 330.59936523 C-17.17120698 335.43785297 -10.88427277 337.84245683 -2.99726868 337.86679077 C-1.74279434 337.87532074 -0.48832001 337.88385071 0.8041687 337.89263916 C2.18170179 337.89194023 3.55923477 337.89101722 4.93676758 337.88989258 C6.39762209 337.89588164 7.85847345 337.90268805 9.31932068 337.9102478 C13.2782724 337.92788032 17.2371376 337.93260212 21.19612479 337.93387938 C23.6737207 337.93530351 26.15129479 337.93957817 28.62888527 337.94487381 C37.28458674 337.96336761 45.9402267 337.97154556 54.59594727 337.9699707 C62.64391733 337.96877068 70.69161862 337.98984732 78.73952073 338.02145803 C85.66460983 338.04768187 92.5896115 338.05833539 99.51474983 338.05705988 C103.64380176 338.05655188 107.7726149 338.06214445 111.90161705 338.08341599 C115.7898949 338.10290079 119.67770878 338.10285372 123.5660038 338.08838272 C124.9852835 338.08630588 126.40459303 338.09092779 127.82382202 338.10310364 C138.01316038 338.18478928 146.31773683 336.96341823 155.03564453 331.47436523 C161.274843 324.64095739 164.05448736 316.64828608 163.93408203 307.50952148 C163.18524775 299.53978523 158.64630338 292.75659956 152.66064453 287.59936523 C146.37373593 283.97994697 140.46417941 282.45257353 133.25170898 282.39404297 C132.50024597 282.38414337 131.74878296 282.37424377 130.97454834 282.36404419 C128.49103952 282.33246028 126.00751158 282.30768407 123.52392578 282.28295898 C121.8018494 282.26238677 120.07977803 282.24139023 118.35771179 282.21998596 C113.82530788 282.1647929 109.2928586 282.11537141 104.76037598 282.06713867 C99.32211088 282.00807111 93.88392868 281.94185833 88.44573212 281.87683868 C80.18408689 281.77886394 71.92238848 281.68998413 63.66064453 281.59936523 C63.66064453 268.39936523 63.66064453 255.19936523 63.66064453 241.59936523 C83.47439634 241.51914762 83.47439634 241.51914762 91.96533203 241.50170898 C97.74336452 241.48978557 103.52133319 241.47572881 109.29931641 241.44848633 C113.9612612 241.42664512 118.6231375 241.41477295 123.28512955 241.40961075 C125.05758873 241.40593515 126.83004445 241.39875797 128.60247421 241.38790512 C149.92056374 241.26264483 168.46174185 245.60770068 184.69189453 260.54077148 C192.31984545 268.51682334 197.66348174 277.35022987 201.66064453 287.59936523 C202.00095703 288.44499023 202.34126953 289.29061523 202.69189453 290.16186523 C208.13786631 306.29807793 205.27908222 326.28456577 198.12890625 341.45703125 C189.78496786 357.76410802 175.97505399 369.85054891 158.59814453 375.59936523 C152.25930736 377.54769512 146.66939029 378.72287927 140.02793884 378.73980713 C139.37468158 378.74277825 138.72142431 378.74574937 138.04837137 378.74881053 C135.86695125 378.75745795 133.68558627 378.75900243 131.50415039 378.76049805 C129.93669519 378.76512917 128.36924111 378.77015422 126.80178833 378.77554321 C122.54728255 378.78864423 118.29279255 378.79510813 114.03826976 378.79955387 C111.3762502 378.80248939 108.71423489 378.80659519 106.05221748 378.81105804 C97.7121301 378.82472932 89.37205252 378.83439677 81.03195471 378.83825994 C71.42614672 378.84273451 61.82048146 378.86025602 52.21471685 378.88926053 C44.77669517 378.91093438 37.33871347 378.92096732 29.90066057 378.92230105 C25.46475865 378.92334536 21.02899097 378.92917253 16.59312248 378.94712067 C12.41437827 378.9636994 8.23586775 378.96570975 4.0571022 378.95698166 C2.53181516 378.95621639 1.00651505 378.96048581 -0.5187397 378.97043991 C-12.61899519 379.04471272 -23.56121299 377.60687488 -34.40185547 371.97436523 C-35.07740479 371.62736572 -35.7529541 371.28036621 -36.44897461 370.92285156 C-54.30632512 361.42227423 -65.56886232 345.80376855 -71.83154297 326.85717773 C-73.68174269 318.63090514 -73.53616373 310.29559647 -73.57763672 301.90795898 C-73.58171225 301.2058687 -73.58578777 300.50377842 -73.5899868 299.78041267 C-73.61074842 296.06080559 -73.62509009 292.34123426 -73.63452148 288.62158203 C-73.64553995 284.82506506 -73.67991491 281.02914153 -73.71969318 277.23283291 C-73.74612861 274.27355536 -73.75423701 271.31441332 -73.75780296 268.35502815 C-73.76260313 266.9578865 -73.77402303 265.56074807 -73.79284096 264.1637249 C-74.02785566 245.55424182 -68.81364494 228.71697428 -56.33935547 214.59936523 C-55.62134766 213.7756543 -54.90333984 212.95194336 -54.16357422 212.10327148 C-42.5423774 199.60715641 -25.65816882 191.19967552 -8.51385498 190.42694092 C-3.92167823 190.34335539 0.66963465 190.37402118 5.26220703 190.40405273 C6.95185172 190.40778967 8.6414986 190.41063342 10.33114624 190.41262817 C14.74682756 190.42021112 19.16237426 190.43981284 23.57800293 190.46203613 C28.89288044 190.48623714 34.20780333 190.495301 39.52272034 190.50694275 C47.56878828 190.52624107 55.61456168 190.56460059 63.66064453 190.59936523 C63.66064453 177.72936523 63.66064453 164.85936523 63.66064453 151.59936523 C69.04248047 151.56198242 74.42431641 151.52459961 79.96923828 151.48608398 C83.3917955 151.45578506 86.81430192 151.42462467 90.23681641 151.39038086 C95.66151276 151.33618574 101.08610863 151.28507093 106.51098633 151.25292969 C110.88781371 151.22679749 115.26430105 151.18632597 119.64091682 151.13617897 C121.30529594 151.11957701 122.96973378 151.10802139 124.63418388 151.10175133 C136.12555605 151.0541083 146.71292287 150.80889986 155.66064453 142.59936523 C163.80600938 133.94491508 164.1206829 122.89574632 164.09423828 111.59545898 C164.09948013 110.27699478 164.10472198 108.95853058 164.11012268 107.60011292 C164.1189969 104.82575818 164.11669491 102.05169221 164.10668945 99.27734375 C164.09518227 95.7447409 164.11546551 92.21313517 164.14460659 88.68066311 C164.16748854 85.27721105 164.16049759 81.87398583 164.15673828 78.47045898 C164.17358925 76.58574135 164.17358925 76.58574135 164.19078064 74.66294861 C164.11174908 64.65181801 161.66784571 56.03293051 154.66064453 48.59936523 C145.59281855 41.38719141 136.50905079 41.29964518 125.33105469 41.30883789 C123.87665972 41.30284712 122.42226792 41.29604031 120.96788025 41.28848267 C117.03184844 41.27087271 113.09590369 41.26612945 109.15983629 41.26485109 C106.69715891 41.26342626 104.23450344 41.25915041 101.77183151 41.25385666 C93.17030185 41.23537396 84.56883402 41.22718396 75.96728516 41.22875977 C67.96526504 41.22996115 59.96351464 41.2088549 51.96156275 41.17727244 C45.07724866 41.15107498 38.19302249 41.1403939 31.30865896 41.14167058 C27.20315958 41.14217914 23.09790017 41.13655515 18.99245071 41.11531448 C15.12960869 41.09587295 11.26723412 41.09584753 7.40437508 41.11034775 C5.9923172 41.11242955 4.5802296 41.10777258 3.16822243 41.09562683 C-4.89884203 41.03076724 -11.31158383 41.44289706 -18.33935547 45.59936523 C-19.33365602 46.18225028 -19.33365602 46.18225028 -20.34804344 46.77691078 C-26.08018303 50.30727095 -28.81896349 55.41378203 -31.65185547 61.34936523 C-33.55124842 70.32831372 -32.90296799 78.56903222 -28.33935547 86.59936523 C-23.35539677 94.12157345 -16.77216196 97.78842974 -8.33935547 100.59936523 C-6.02471843 100.71772301 -3.70689251 100.77637613 -1.3894043 100.8046875 C-0.33536156 100.8195369 -0.33536156 100.8195369 0.73997498 100.83468628 C3.06115355 100.86625757 5.38235258 100.89104136 7.70361328 100.91577148 C9.31358877 100.93634479 10.92355889 100.95734136 12.53352356 100.97874451 C16.77000591 101.03392629 21.00653669 101.08335273 25.24310303 101.1315918 C30.32678269 101.19066973 35.41037388 101.25687629 40.49398041 101.32189178 C48.21614772 101.41985234 55.93837191 101.50874181 63.66064453 101.59936523 C63.66064453 114.79936523 63.66064453 127.99936523 63.66064453 141.59936523 C45.3353752 141.75980047 45.3353752 141.75980047 37.42626953 141.79467773 C32.06347501 141.81843986 26.70095779 141.8463172 21.33837891 141.90112305 C17.00705969 141.94510413 12.6760385 141.96861048 8.34451294 141.97887421 C6.7053662 141.98617313 5.06623274 142.00042095 3.42721558 142.02228546 C-17.41560051 142.28885837 -36.08249407 137.34697419 -51.40576172 122.58837891 C-52.72952024 121.2712119 -54.035214 119.93595813 -55.33935547 118.59936523 C-55.93103516 118.02831055 -56.52271484 117.45725586 -57.13232422 116.86889648 C-69.28127554 104.19881052 -74.02306057 85.72110706 -73.66967773 68.62548828 C-72.85027918 48.15477477 -64.86862797 31.4343101 -50.08935547 17.28686523 C-35.37898094 5.05402747 -18.89718927 -0.20116428 0 0 Z " fill="#FEFEFE" transform="translate(190.33935546875,66.400634765625)"/>
  <path d="M0 0 C26.4 0 52.8 0 80 0 C79.67 0.66 79.34 1.32 79 2 C53.59 2 28.18 2 2 2 C2 14.21 2 26.42 2 39 C1.67 39 1.34 39 1 39 C0.67 26.13 0.34 13.26 0 0 Z " fill="#292929" transform="translate(254,258)"/>
</svg>